<svg width="360" height="360" viewBox="0 0 360 360" fill="none" xmlns="http://www.w3.org/2000/svg">
<g clip-path="url(#clip0_69_74)">
<path d="M360 310C360 337.62 337.62 360 310 360H50C22.39 360 0 337.62 0 310V50C0 22.38 22.39 0 50 0H310C337.62 0 360 22.38 360 50V310Z" fill="#0288D1"/>
<path d="M60 130H110V300H60V130ZM84.85 110H84.57C69.65 110 60 98.88 60 84.99C60 70.8 69.95 60 85.14 60C100.35 60 109.72 70.8 110 84.99C110 98.87 100.35 110 84.85 110ZM300 300H250V209.01C250 187.03 237.75 172.03 218.08 172.03C203.07 172.03 194.95 182.15 191.01 191.93C189.57 195.43 190 205.11 190 210V300H140V130H190V156.16C197.21 145 208.5 130 237.38 130C273.16 130 299.99 152.5 299.99 202.74L300 300Z" fill="white"/>
</g>
<defs>
<clipPath id="clip0_69_74">
<rect width="360" height="360" fill="white"/>
</clipPath>
</defs>
</svg>
