<svg width="800" height="800" viewBox="0 0 800 800" fill="none" xmlns="http://www.w3.org/2000/svg">
<g clip-path="url(#clip0_69_66)">
<path d="M0.310913 596.521V596.556C0.789703 614.315 0.937384 632.176 3.93293 649.826C7.10724 668.499 11.6449 686.707 20.3019 703.654C32.0059 726.593 48.0795 745.964 68.369 761.787C82.9363 773.149 98.8499 782.168 116.466 787.858C142.152 796.143 168.652 799.319 195.539 799.475C212.314 799.58 229.078 800 245.858 799.93C367.724 799.417 489.594 800.81 611.463 799.178C627.634 798.958 643.542 796.986 659.413 794.084C689.833 788.515 716.719 775.535 739.721 755.014C766.528 731.104 784.615 701.842 792.779 666.525C798.122 643.44 799.459 620.02 799.688 596.518V591.829C799.688 590.01 798.996 192.487 798.932 187.233C798.753 172.8 797.69 158.475 794.984 144.273C791.693 126.966 787.043 110.103 778.756 94.4459C770.006 77.9044 759.045 63.0308 745.488 50.0335C724.721 30.1202 700.757 16.0379 672.858 8.58868C647.659 1.86231 621.952 0.373085 596.057 0.396402C596.015 0.390184 595.917 0.12747 595.911 0H203.963C203.955 0.133688 203.95 0.267378 203.941 0.396402C189.245 0.665333 174.527 0.554959 159.905 2.36752C143.887 4.35885 128.023 7.3575 112.862 12.9569C88.9818 21.7896 68.2338 35.547 50.5108 53.9136C30.4311 74.7223 16.2773 98.7877 8.76746 126.811C2.06752 151.814 0.609389 177.314 0.573635 202.994" fill="#4F2A93"/>
<g clip-path="url(#clip1_69_66)">
<path fill-rule="evenodd" clip-rule="evenodd" d="M644.063 600.94C639.063 589.909 627.547 584.565 620.031 589.909C612.531 595.237 602.109 596.049 592.219 593.659C582.328 591.268 580.453 568.596 582.594 542.44C584.719 516.299 588.266 506.221 590.5 496.737C593.031 487.206 604.203 487.956 605.531 495.424C606.875 502.909 614.625 502.909 625.953 489.315C637.266 475.721 635.594 436.049 622.547 403.784C609.484 371.518 627.641 374.643 632.922 377.846C638.187 381.049 641.422 376.252 640.141 357.846C638.859 339.44 621.922 325.065 608.281 316.237C594.641 307.424 578.031 297.706 578.422 274.096C578.813 250.487 610.922 251.221 615.266 251.612C619.625 252.002 628 250.159 623.172 225.627C618.328 201.096 600.828 196.424 589.844 197.096C578.859 197.752 571.453 203.784 555.937 197.924C540.391 192.049 530.078 194.331 515.625 197.565C501.156 200.784 482.219 209.69 458.656 216.049C446.234 219.471 442.031 220.331 428.5 220.549C420.187 220.674 416.703 230.752 427.828 243.112C436.625 253.159 456.562 255.831 468.547 254.159C476.266 253.065 478.047 258.19 477.344 265.721C476.241 275.035 476.189 284.443 477.188 293.768C478.438 303.143 480 319.081 475.578 329.487C473.391 334.581 467.063 340.065 460.266 339.69C451.438 339.159 444.297 328.752 438.172 316.409C425.281 290.44 410.156 284.94 353.734 261.174C302.984 239.815 275.5 206.487 258.484 185.018C243.344 166.002 228.187 173.206 229.578 190.362C230.672 203.674 238.828 246.674 259.453 272.502C284.813 311.956 323.953 329.846 369.031 333.362C380.828 334.299 388.187 336.612 389.187 342.002C390.672 353.487 379.469 361.44 358.578 359.034C337.703 356.581 328.781 360.393 332.938 372.284C346.219 400.252 376.828 401.487 389.547 402.627C393.844 403.409 409.016 402.628 417.109 404.862C426.562 407.456 428.594 420.565 414.922 427.659C390.578 439.534 379.969 449.393 367.656 471.878C358.359 489.534 350.344 519.096 358.687 561.643C366.703 603.018 306.547 604.346 280.562 598.471C269.375 596.112 257.594 574.846 285.047 557.065C307.25 542.659 311.734 533.784 310.75 515.549C309.594 494.299 297.875 492.768 297.906 474.299V430.237C297.906 428.434 297.19 426.705 295.915 425.431C294.641 424.156 292.912 423.44 291.109 423.44H270.281C268.481 423.44 266.755 422.726 265.481 421.455C264.206 420.183 263.489 418.459 263.484 416.659V390.096C263.484 388.294 262.768 386.565 261.494 385.29C260.219 384.015 258.49 383.299 256.688 383.299H235.953C234.15 383.299 232.422 382.583 231.147 381.309C229.872 380.034 229.156 378.305 229.156 376.502V352.69C229.156 350.887 228.44 349.159 227.165 347.884C225.891 346.609 224.162 345.893 222.359 345.893H197.109C195.307 345.893 193.578 345.177 192.303 343.902C191.029 342.628 190.312 340.899 190.312 339.096V314.049C190.308 312.249 189.59 310.525 188.316 309.253C187.042 307.982 185.316 307.268 183.516 307.268H156.797C154.997 307.268 153.27 307.982 151.996 309.253C150.722 310.525 150.004 312.249 150 314.049V340.69C150 344.44 153.047 347.487 156.797 347.487H182.109C185.859 347.487 188.906 350.534 188.906 354.284V449.221C188.906 452.987 191.953 456.018 195.703 456.018H222.422C226.188 456.018 229.234 459.081 229.234 462.815V493.877C229.234 497.627 232.281 500.659 236.031 500.659H273.562C285.031 499.846 287.031 515.253 286.906 520.753C286.656 533.299 272.484 537.315 265.781 542.549C247.891 556.362 234.047 570.409 242.141 597.424L242.344 597.987C257.109 629.346 297.688 626.112 323.328 626.112H484.672C493.797 626.112 503.172 628.221 501.016 617.596C498.891 606.971 494.375 592.44 481.25 592.44C468.125 592.44 470.266 599.737 457.438 596.003C444.609 592.284 444.594 574.94 463.859 544.768C483.797 519.002 517.922 520.956 538.563 539.174C559.188 557.393 553.094 589.034 548.766 607.206C546.297 620.018 552.172 626.331 559.219 626.159H641.125C653.719 625.94 651.234 617.471 644.016 600.94H644.063Z" fill="white"/>
</g>
</g>
<defs>
<clipPath id="clip0_69_66">
<rect width="800" height="800" fill="white"/>
</clipPath>
<clipPath id="clip1_69_66">
<rect width="500" height="500" fill="white" transform="translate(150 150)"/>
</clipPath>
</defs>
</svg>
