<svg width="200" height="200" viewBox="0 0 200 200" fill="none" xmlns="http://www.w3.org/2000/svg">
<path d="M160 0H40C17.9086 0 0 17.9086 0 40V160C0 182.091 17.9086 200 40 200H160C182.091 200 200 182.091 200 160V40C200 17.9086 182.091 0 160 0Z" fill="black"/>
<path d="M26 126.908V72H59.2819V79.9753H34.4353V96.0796H56.8276V104.055H34.4353V126.908H26ZM62.7271 126.908V72H71.0092V126.908H62.7271ZM95.1958 128.135C91.1571 128.135 87.6038 127.214 84.5364 125.374C81.4689 123.533 79.066 121.054 77.3277 117.935C75.5897 114.766 74.7206 111.238 74.7206 107.353C74.7206 103.467 75.5897 99.9651 77.3277 96.8466C79.066 93.6771 81.4689 91.1717 84.5364 89.3312C87.6038 87.4908 91.1571 86.5705 95.1958 86.5705C99.1835 86.5705 102.711 87.5163 105.778 89.4082C108.846 91.2486 111.249 93.7281 112.987 96.8466C114.725 99.9651 115.594 103.467 115.594 107.353C115.594 111.238 114.725 114.766 112.987 117.935C111.249 121.054 108.846 123.533 105.778 125.374C102.711 127.214 99.1835 128.135 95.1958 128.135ZM95.1958 120.543C97.343 120.543 99.337 120.031 101.177 119.009C103.018 117.935 104.501 116.427 105.625 114.484C106.801 112.49 107.389 110.113 107.389 107.352C107.389 104.591 106.801 102.24 105.625 100.297C104.5 98.303 103.018 96.7949 101.177 95.7725C99.337 94.6987 97.343 94.1622 95.1958 94.1622C93.0486 94.1622 91.0294 94.6991 89.1375 95.7725C87.2971 96.7949 85.7889 98.303 84.613 100.297C83.4881 102.24 82.9257 104.591 82.9257 107.352C82.9257 110.113 83.4881 112.49 84.613 114.484C85.7885 116.427 87.3226 117.935 89.2141 119.009C91.1057 120.032 93.0997 120.543 95.1958 120.543ZM126.841 126.908L114.341 87.7975H123.313L131.366 115.941H131.672L140.491 87.7975H149.004L157.823 115.941H158.129L166.181 87.7975H175L162.423 126.908H153.758L144.709 98.6101H144.402L135.43 126.908H126.841Z" fill="white"/>
</svg>
