<svg width="200" height="200" viewBox="0 0 200 200" fill="none" xmlns="http://www.w3.org/2000/svg">
<path d="M160 0H40C17.9086 0 0 17.9086 0 40V160C0 182.091 17.9086 200 40 200H160C182.091 200 200 182.091 200 160V40C200 17.9086 182.091 0 160 0Z" fill="black"/>
<path fill-rule="evenodd" clip-rule="evenodd" d="M86.1225 116.724L126.677 86.7477C128.665 85.2735 131.507 85.848 132.457 88.1304C137.439 100.173 135.212 114.64 125.29 124.573C115.372 134.506 101.566 136.681 88.9488 131.72L75.1679 138.11C94.937 151.636 118.941 148.292 133.941 133.265C145.842 121.35 149.527 105.109 146.08 90.4636L146.111 90.4992C141.114 68.9865 147.341 60.3855 160.09 42.8023C160.395 42.3855 160.7 41.9686 161 41.5416L144.22 58.342V58.2912L86.1073 116.734M77.7503 124.009C63.5576 110.436 66.0077 89.4368 78.1112 77.3232C87.0629 68.3613 101.733 64.7013 114.538 70.0795L128.289 63.7253C125.431 61.6229 122.304 59.9132 118.991 58.642C110.664 55.2336 101.514 54.3638 92.6936 56.142C83.873 57.9203 75.7752 62.2671 69.4187 68.6358C56.5426 81.5271 52.4912 101.352 59.4452 118.269C64.6403 130.912 56.1258 139.853 47.5502 148.881C44.5053 152.084 41.4553 155.281 39 158.667L77.735 124.024" fill="white"/>
</svg>
