<svg width="89" height="89" viewBox="0 0 89 89" fill="none" xmlns="http://www.w3.org/2000/svg">
<path d="M64.2295 14.834C68.8179 14.8352 73.2435 16.5377 76.6494 19.6123C80.0418 22.6748 82.1827 26.8821 82.6631 31.4258L82.7158 31.9043C82.7192 31.9281 82.7227 31.9527 82.7256 31.9766C83.0077 34.3239 85.292 53.3185 85.292 59.334C85.2919 63.2678 83.7289 67.0406 80.9473 69.8223C78.1656 72.6039 74.3928 74.1668 70.459 74.167C65.1203 74.167 62.313 71.2652 60.4199 69.3721L55.1758 64.1289C54.4806 63.4335 53.537 63.0423 52.5537 63.042H36.4463C35.463 63.0423 34.5204 63.4336 33.8252 64.1289H33.8242L28.5811 69.3721C26.688 71.2652 23.8806 74.1669 18.542 74.167C14.6081 74.167 10.8355 72.6039 8.05371 69.8223C5.272 67.0406 3.70907 63.2679 3.70898 59.334C3.70898 53.3222 5.99333 34.3236 6.27539 31.9766L6.2832 31.9141C6.3055 31.7516 6.29234 31.8075 6.33594 31.4297C6.81563 26.8835 8.95805 22.6739 12.3525 19.6104C15.7584 16.5368 20.1838 14.8351 24.7715 14.834H64.2295ZM29.667 29.665C27.618 29.665 25.957 31.326 25.957 33.375V37.082H22.25C20.201 37.082 18.54 38.743 18.54 40.792C18.5402 42.8408 20.2011 44.502 22.25 44.502H25.957V48.208C25.957 50.257 27.618 51.918 29.667 51.918C31.7158 51.9178 33.377 50.2569 33.377 48.208V44.502H37.083C39.1319 44.502 40.7928 42.8408 40.793 40.792C40.793 38.743 39.132 37.082 37.083 37.082H33.377V33.375C33.377 31.3261 31.7158 29.6652 29.667 29.665ZM55.625 40.79C53.576 40.79 51.915 42.451 51.915 44.5C51.915 46.549 53.576 48.21 55.625 48.21H55.6621C57.7111 48.2099 59.3721 46.549 59.3721 44.5C59.3721 42.451 57.7111 40.7901 55.6621 40.79H55.625ZM66.75 33.373C64.7011 33.373 63.0402 35.0342 63.04 37.083C63.04 39.132 64.701 40.793 66.75 40.793H66.7871C68.8361 40.793 70.4971 39.132 70.4971 37.083C70.4969 35.0342 68.836 33.3731 66.7871 33.373H66.75Z" fill="#FF4C00"/>
</svg>
