<svg width="89" height="89" viewBox="0 0 89 89" fill="none" xmlns="http://www.w3.org/2000/svg">
<path d="M74.167 14.834C80.311 14.8341 85.292 19.8149 85.292 25.959V63.042C85.292 69.1861 80.311 74.1668 74.167 74.167H14.834C8.68982 74.167 3.70898 69.1862 3.70898 63.042V25.959C3.70898 19.8148 8.68982 14.834 14.834 14.834H74.167ZM33.375 29.667C27.231 29.6672 22.25 34.648 22.25 40.792C22.2501 43.2921 23.0755 45.5994 24.4678 47.457C22.1274 49.2148 20.3562 51.6276 19.3828 54.3945C18.7032 56.3265 19.7184 58.4434 21.6504 59.123C23.5823 59.8024 25.6993 58.7873 26.3789 56.8555C26.8885 55.4069 27.8357 54.1522 29.0889 53.2646C30.2492 52.4429 31.6195 51.9732 33.0352 51.9082C33.1479 51.9116 33.2614 51.917 33.375 51.917C33.4884 51.917 33.6022 51.9116 33.7148 51.9082C35.1308 51.9731 36.5015 52.4426 37.6621 53.2646C38.9152 54.1523 39.8625 55.4069 40.3721 56.8555C41.0518 58.7874 43.1686 59.8027 45.1006 59.123C47.0323 58.4433 48.0476 56.3263 47.3682 54.3945C46.3947 51.6274 44.6228 49.2149 42.2822 47.457C43.6746 45.5994 44.4999 43.2922 44.5 40.792C44.5 34.648 39.519 29.6672 33.375 29.667ZM59.334 48.208C57.2859 48.208 55.625 49.8689 55.625 51.917C55.6252 53.9649 57.286 55.625 59.334 55.625H66.75C68.7978 55.6248 70.4588 53.9648 70.459 51.917C70.459 49.8691 68.7979 48.2082 66.75 48.208H59.334ZM33.375 37.083C35.4229 37.0832 37.084 38.7441 37.084 40.792C37.0838 42.7472 35.5697 44.3473 33.6504 44.4883C33.5589 44.4866 33.4666 44.4834 33.375 44.4834C33.2833 44.4834 33.1912 44.4866 33.0996 44.4883C31.1805 44.3471 29.6672 42.7471 29.667 40.792C29.667 38.7441 31.3271 37.0832 33.375 37.083ZM59.334 33.375C57.286 33.375 55.6252 35.0351 55.625 37.083C55.625 39.1311 57.2859 40.792 59.334 40.792H66.75C68.7979 40.7918 70.459 39.1309 70.459 37.083C70.4588 35.0352 68.7978 33.3752 66.75 33.375H59.334Z" fill="#FF4C00"/>
</svg>
