<svg width="89" height="89" viewBox="0 0 89 89" fill="none" xmlns="http://www.w3.org/2000/svg">
<path d="M44.5 11.125C46.5479 11.1252 48.209 12.7851 48.209 14.833V25.958H66.75C72.894 25.9582 77.875 30.9389 77.875 37.083V48.208H81.584C83.6316 48.2083 85.2918 49.8683 85.292 51.916C85.292 53.9639 83.6318 55.6247 81.584 55.625H77.875V66.75C77.8748 72.8939 72.8939 77.8748 66.75 77.875H22.25C16.1061 77.8748 11.1252 72.8939 11.125 66.75V55.625H7.41699C5.36894 55.625 3.70898 53.9641 3.70898 51.916C3.70916 49.8681 5.36904 48.208 7.41699 48.208H11.125V37.083C11.125 30.9389 16.106 25.9582 22.25 25.958H40.792V18.541H29.667C27.6189 18.541 25.959 16.8811 25.959 14.833C25.959 12.785 27.6189 11.125 29.667 11.125H44.5ZM33.375 44.5C31.3269 44.5 29.667 46.16 29.667 48.208V55.625C29.6672 57.6729 31.3271 59.333 33.375 59.333C35.4229 59.333 37.0828 57.6729 37.083 55.625V48.208C37.083 46.16 35.4231 44.5 33.375 44.5ZM55.625 44.5C53.5769 44.5 51.917 46.16 51.917 48.208V55.625C51.9172 57.6729 53.5771 59.333 55.625 59.333C57.6729 59.333 59.3328 57.6729 59.333 55.625V48.208C59.333 46.16 57.6731 44.5 55.625 44.5Z" fill="#FF4C00"/>
</svg>
