<svg width="89" height="89" viewBox="0 0 89 89" fill="none" xmlns="http://www.w3.org/2000/svg">
<path d="M65.3013 26.292C67.7516 26.3124 70.1271 27.1409 72.0581 28.6494C73.9676 30.1413 75.3359 32.2163 75.9585 34.5566H75.9595L85.3237 67.7832L85.3247 67.7881C85.7882 69.4412 85.8626 71.1795 85.5425 72.8662C85.2223 74.5529 84.516 76.1434 83.479 77.5117C82.4421 78.8798 81.1021 79.9897 79.5649 80.7539C78.0276 81.5181 76.3335 81.9163 74.6167 81.917H15.2817C15.2595 81.917 15.2366 81.9164 15.2144 81.916C13.534 81.8854 11.8821 81.4743 10.3833 80.7139C8.88442 79.9533 7.57714 78.8626 6.56006 77.5244C5.54305 76.1862 4.84179 74.6351 4.51025 72.9873C4.17876 71.3394 4.22548 69.6373 4.646 68.0098C4.65103 67.9903 4.65627 67.9706 4.66162 67.9512L13.9097 34.4277C13.911 34.4229 13.9132 34.418 13.9146 34.4131C14.5646 32.0945 15.9493 30.0493 17.8608 28.585C19.7725 27.1207 22.1082 26.3158 24.5161 26.292H65.3013ZM50.9692 45.3955C49.8074 45.3955 48.7549 45.69 47.812 46.2793C46.869 46.8687 46.1197 47.7111 45.564 48.8057C45.0251 49.9002 44.7554 51.1719 44.7554 52.6201C44.7554 54.0681 45.0252 55.3477 45.564 56.459C46.1197 57.5536 46.869 58.4045 47.812 59.0107C48.7549 59.6 49.8075 59.8945 50.9692 59.8945C51.9627 59.8945 52.8299 59.6922 53.5708 59.2881C54.3117 58.8671 54.893 58.3285 55.314 57.6719V59.667C55.314 60.7952 55.0442 61.612 54.5054 62.1172C53.9834 62.639 53.2765 62.9003 52.3843 62.9004C51.6434 62.9004 51.0203 62.7398 50.5151 62.4199C50.01 62.1168 49.6899 61.6961 49.5552 61.1572H45.2856C45.4709 62.8412 46.2126 64.1717 47.5093 65.1484C48.8058 66.1417 50.4978 66.6386 52.5854 66.6387C54.1515 66.6387 55.4574 66.3272 56.5015 65.7041C57.5622 65.0811 58.3449 64.2386 58.8501 63.1777C59.3721 62.1337 59.6333 60.9635 59.6333 59.667V45.5977H55.314V47.5928C54.9098 46.9361 54.3285 46.4061 53.5708 46.002C52.8299 45.5978 51.9627 45.3955 50.9692 45.3955ZM29.9995 41V59.6924H34.3188V53.7812L38.6138 59.6924H43.9683L38.0581 52.6699L43.9175 45.5977H38.5884L34.3188 51.3311V41H29.9995ZM52.2319 49.1592C53.0907 49.1592 53.8154 49.4707 54.4048 50.0938C55.0109 50.7167 55.3139 51.5671 55.314 52.6445C55.314 53.7223 55.011 54.5732 54.4048 55.1963C53.8154 55.8194 53.0907 56.1309 52.2319 56.1309C51.3733 56.1308 50.6408 55.8192 50.0347 55.1963C49.4454 54.5565 49.151 53.6976 49.1509 52.6201C49.1509 51.5424 49.4453 50.7 50.0347 50.0938C50.6408 49.4708 51.3733 49.1593 52.2319 49.1592Z" fill="#FF4C00"/>
<path d="M44.4999 29.667C50.644 29.667 55.6249 24.6862 55.6249 18.542C55.6249 12.3978 50.644 7.41699 44.4999 7.41699C38.3557 7.41699 33.3749 12.3978 33.3749 18.542C33.3749 24.6862 38.3557 29.667 44.4999 29.667Z" stroke="#FF4C00" stroke-width="7.41667" stroke-linecap="round" stroke-linejoin="round"/>
</svg>
